<svg id="bold" enable-background="new 0 0 24 24" height="512" viewBox="0 0 24 24" width="512" xmlns="http://www.w3.org/2000/svg">
    <g>
        <path d="m22 0h-11c-1.105 0-2 .895-2 2v9c0 1.105.895 2 2 2h11c1.105 0 2-.895 2-2v-9c0-1.105-.895-2-2-2zm-1 11h-9c-.551 0-1-.448-1-1v-6h11v6c0 .552-.449 1-1 1z" />
    </g>
    <g>
        <path d="m13 15v6c0 .55-.45 1-1 1h-9c-.55 0-1-.45-1-1v-6h9c-2.21 0-4-1.79-4-4h-5c-1.1 0-2 .9-2 2v9c0 1.1.9 2 2 2h11c1.1 0 2-.9 2-2v-7z" />
    </g>
    <g>
        <path d="m6.25 5h-1.25v-1c0-.551.449-1 1-1 .552 0 1-.448 1-1s-.448-1-1-1c-1.654 0-3 1.346-3 3v1h-1.25c-.297 0-.565.174-.685.445-.12.27-.071.586.127.807l2.25 2.5c.143.158.345.248.558.248s.415-.09.558-.248l2.25-2.5c.126-.141.192-.32.192-.502 0-.104-.021-.207-.065-.305-.121-.271-.389-.445-.685-.445z" />
    </g>
    <g>
        <path d="m22.808 17.748-2.25-2.5c-.143-.158-.345-.248-.558-.248s-.415.09-.558.248l-2.25 2.5c-.126.141-.192.32-.192.502 0 .104.021.207.065.305.121.271.389.445.685.445h1.25v1c0 .551-.449 1-1 1-.552 0-1 .448-1 1s.448 1 1 1c1.654 0 3-1.346 3-3v-1h1.25c.296 0 .564-.174.685-.445.12-.27.071-.586-.127-.807z" />
    </g>
</svg>